PathFileType  4	(X/Y/Z) W:\OA_GaitRetraining\OpenSimAllSubjects\Subject_114\Gait\Week1\Files_W_HJCs\
DataRate	CameraRate	NumFrames	NumMarkers	Units	OrigDataRate	OrigDataStartFrame	OrigNumFrames
  100.0		  100.0		    8		     57		 mm	  100.0	      1	    460
Frame#	Time	r_knee			r_shank(antsup)			r_ankle			r_calc			r_5meta			r_toe			L_knee			L_shank(ant_sup)			L_ankle			L_calc			L_5meta			L_toe			r_mknee			r_mankle			L_mknee			L_mankle			r_sh2			r_sh3			r_sh4			L_sh2			L_sh3			r_thigh1			r_thigh2			r_thigh3			r_thigh4			r_thigh5			L_thigh1			L_thigh2			L_thigh3			L_thigh4			r.ASIS			r.PSIS			L.ASIS			L.PSIS			C7			R_Shoulder			L_Shoulder			R_Sternum			L_Sternum			R_HJC			L_HJC			R_HJC_reg			L_HJC_reg			midPSIS			midASIS			midHJC			midPelvis			R_KJC			L_KJC			R_AJC			L_AJC			R_AJC_proj			R_5meta_proj			R_toe_proj			L_AJC_proj			L_5meta_proj			L_toe_proj			
		X1	Y1	Z1	X2	Y2	Z2	X3	Y3	Z3	X4	Y4	Z4	X5	Y5	Z5	X6	Y6	Z6	X7	Y7	Z7	X8	Y8	Z8	X9	Y9	Z9	X10	Y10	Z10	X11	Y11	Z11	X12	Y12	Z12	X13	Y13	Z13	X14	Y14	Z14	X15	Y15	Z15	X16	Y16	Z16	X17	Y17	Z17	X18	Y18	Z18	X19	Y19	Z19	X20	Y20	Z20	X21	Y21	Z21	X22	Y22	Z22	X23	Y23	Z23	X24	Y24	Z24	X25	Y25	Z25	X26	Y26	Z26	X27	Y27	Z27	X28	Y28	Z28	X29	Y29	Z29	X30	Y30	Z30	X31	Y31	Z31	X32	Y32	Z32	X33	Y33	Z33	X34	Y34	Z34	X35	Y35	Z35	X36	Y36	Z36	X37	Y37	Z37	X38	Y38	Z38	X39	Y39	Z39	X40	Y40	Z40	X41	Y41	Z41	X42	Y42	Z42	X43	Y43	Z43	X44	Y44	Z44	X45	Y45	Z45	X46	Y46	Z46	X47	Y47	Z47	X48	Y48	Z48	X49	Y49	Z49	X50	Y50	Z50	X51	Y51	Z51	X52	Y52	Z52	X53	Y53	Z53	X54	Y54	Z54	X55	Y55	Z55	X56	Y56	Z56	X57	Y57	Z57	

1	0.00000	1168.821	503.582	-319.345	1221.662	435.987	-322.921	1250.125	111.628	-323.732	1194.622	68.220	-371.848	1361.382	40.480	-301.604	1429.520	80.374	-362.030	980.152	487.892	-691.474	989.573	421.731	-665.698	809.215	116.562	-658.508	740.317	75.867	-599.589	893.859	42.566	-692.450	967.974	78.077	-641.189	1222.893	500.693	-459.111	1290.594	128.387	-412.743	989.814	472.109	-540.058	838.662	122.601	-563.240	1238.623	327.026	-311.732	1141.784	423.467	-313.031	1158.028	308.367	-306.785	909.937	455.073	-698.718	877.422	338.153	-706.871	1136.473	782.565	-292.081	1177.010	690.383	-298.630	1135.152	632.767	-288.206	1032.499	737.490	-291.659	1074.141	635.854	-301.417	1105.875	710.533	-704.321	1085.545	585.430	-678.593	1015.086	729.099	-751.426	975.507	603.905	-719.134	1157.310	954.152	-346.503	912.257	1022.196	-462.706	1160.233	947.817	-687.606	910.832	1025.820	-550.349	967.128	1400.019	-517.526	1073.089	1405.681	-405.972	1065.995	1383.095	-646.159	1117.426	1327.774	-503.047	1117.836	1330.255	-549.719	1046.781	865.858	-424.305	1040.635	846.825	-608.564	1062.731	854.501	-399.477	1059.074	863.804	-624.431	911.544	1024.008	-506.528	1158.771	950.984	-517.055	1043.708	856.341	-516.435	1035.158	987.496	-511.791	1195.857	502.137	-389.228	984.983	480.001	-615.766	1270.359	120.007	-368.238	823.938	119.582	-610.874	1270.359	0.000	-368.238	1361.382	0.000	-301.604	1429.520	0.000	-362.030	823.938	0.000	-610.874	893.859	0.000	-692.450	967.974	0.000	-641.189
2	0.01000	1168.698	503.537	-319.395	1221.541	436.056	-322.834	1250.215	111.652	-323.642	1194.600	68.208	-371.882	1361.358	40.326	-301.813	1429.555	80.205	-362.179	980.082	487.867	-691.479	989.528	421.684	-665.663	809.069	116.606	-658.557	740.232	75.731	-599.601	893.910	42.577	-692.430	967.930	78.079	-641.188	1222.783	500.729	-459.075	1290.589	128.373	-412.732	989.752	472.328	-539.822	838.564	122.490	-563.279	1238.629	327.113	-311.735	1141.737	423.492	-313.000	1157.989	308.356	-306.700	909.725	455.133	-698.727	877.383	338.192	-706.978	1136.337	782.486	-291.996	1176.753	690.229	-298.654	1134.981	632.756	-288.174	1032.344	737.298	-291.650	1073.979	635.854	-301.457	1105.795	710.633	-704.294	1085.457	585.464	-678.629	1015.061	729.161	-751.469	975.450	603.925	-719.049	1157.131	954.070	-346.432	912.077	1022.110	-462.670	1160.206	947.844	-687.543	910.785	1025.743	-550.297	967.036	1399.938	-517.492	1073.051	1405.651	-405.862	1065.954	1383.119	-646.015	1117.426	1327.774	-503.047	1117.736	1330.214	-549.750	1046.665	865.775	-424.288	1040.588	846.806	-608.556	1062.468	854.440	-399.565	1059.152	863.767	-624.527	911.431	1023.927	-506.483	1158.669	950.957	-516.988	1043.627	856.290	-516.422	1035.050	987.442	-511.735	1195.740	502.133	-389.235	984.917	480.097	-615.651	1270.402	120.012	-368.187	823.817	119.548	-610.918	1270.402	0.000	-368.187	1361.358	0.000	-301.813	1429.555	0.000	-362.179	823.817	0.000	-610.918	893.910	0.000	-692.430	967.930	0.000	-641.188
3	0.02000	1168.644	503.594	-319.373	1221.427	436.181	-322.855	1250.114	111.568	-323.674	1194.590	68.182	-371.814	1361.383	40.498	-301.617	1429.509	80.408	-362.068	979.966	487.866	-691.433	989.513	421.714	-665.692	809.077	116.581	-658.569	740.206	75.755	-599.589	893.894	42.593	-692.496	967.907	78.099	-641.180	1222.782	500.768	-459.082	1290.586	128.397	-412.742	989.542	472.137	-540.077	838.636	122.541	-563.237	1238.525	327.007	-311.750	1141.694	423.489	-313.027	1157.891	308.365	-306.681	909.767	455.039	-698.634	877.128	338.196	-706.755	1136.127	782.395	-292.001	1176.526	690.083	-298.662	1134.814	632.723	-288.207	1032.237	737.269	-291.618	1073.871	635.771	-301.481	1105.666	710.610	-704.300	1085.366	585.525	-678.632	1015.113	729.140	-751.373	975.403	603.986	-719.127	1156.990	954.020	-346.377	911.987	1022.099	-462.720	1160.115	947.934	-687.472	910.655	1025.764	-550.333	966.889	1399.941	-517.433	1072.913	1405.670	-405.751	1065.868	1383.196	-645.995	1117.426	1327.774	-503.047	1117.540	1330.076	-549.767	1046.529	865.757	-424.317	1040.510	846.852	-608.593	1062.407	854.424	-399.500	1058.987	863.836	-624.445	911.321	1023.931	-506.526	1158.553	950.977	-516.925	1043.519	856.304	-516.455	1034.937	987.454	-511.725	1195.713	502.181	-389.227	984.754	480.001	-615.755	1270.350	119.982	-368.208	823.857	119.561	-610.903	1270.350	0.000	-368.208	1361.383	0.000	-301.617	1429.509	0.000	-362.068	823.857	0.000	-610.903	893.894	0.000	-692.496	967.907	0.000	-641.180
4	0.03000	1168.489	503.459	-319.381	1221.333	436.048	-322.663	1250.157	111.693	-323.589	1194.605	68.147	-371.804	1361.354	40.488	-301.700	1429.543	80.533	-362.051	979.937	487.846	-691.479	989.459	421.814	-665.596	809.049	116.531	-658.589	740.183	75.641	-599.642	893.970	42.571	-692.439	967.914	78.108	-641.171	1222.710	500.786	-459.045	1290.573	128.350	-412.656	989.422	472.276	-539.782	838.532	122.502	-563.247	1238.472	326.983	-311.695	1141.578	423.449	-313.101	1157.848	308.341	-306.709	909.577	455.143	-698.842	877.201	338.144	-706.736	1136.011	782.385	-291.982	1176.457	690.112	-298.676	1134.734	632.702	-288.270	1032.112	737.262	-291.605	1073.798	635.795	-301.544	1105.649	710.687	-704.252	1085.288	585.524	-678.543	1014.752	729.231	-751.414	975.233	603.975	-719.186	1156.921	954.000	-346.286	911.880	1022.131	-462.685	1159.985	947.918	-687.494	910.495	1025.681	-550.200	966.715	1399.981	-517.302	1072.727	1405.645	-405.728	1065.778	1383.139	-645.942	1117.426	1327.774	-503.047	1117.432	1330.005	-549.789	1046.440	865.742	-424.252	1040.384	846.824	-608.526	1062.293	854.600	-399.242	1058.731	863.730	-624.271	911.188	1023.906	-506.443	1158.453	950.959	-516.890	1043.412	856.283	-516.389	1034.820	987.432	-511.666	1195.599	502.122	-389.213	984.680	480.061	-615.630	1270.365	120.021	-368.123	823.790	119.517	-610.918	1270.365	0.000	-368.123	1361.354	0.000	-301.700	1429.543	0.000	-362.051	823.790	0.000	-610.918	893.970	0.000	-692.439	967.914	0.000	-641.171
5	0.04000	1168.464	503.486	-319.422	1221.303	436.137	-322.746	1250.100	111.590	-323.638	1194.523	68.164	-371.785	1361.385	40.429	-301.665	1429.449	80.451	-362.165	979.845	487.850	-691.503	989.397	421.680	-665.557	808.964	116.577	-658.658	740.176	75.673	-599.671	893.878	42.603	-692.487	967.878	78.148	-641.177	1222.578	500.665	-459.047	1290.547	128.357	-412.591	989.417	472.271	-539.917	838.565	122.388	-563.315	1238.351	326.947	-311.669	1141.484	423.433	-313.111	1157.711	308.337	-306.762	909.629	455.161	-698.759	877.113	338.062	-706.815	1135.751	782.326	-291.944	1176.363	690.135	-298.697	1134.537	632.627	-288.320	1031.788	737.173	-291.705	1073.632	635.766	-301.550	1105.540	710.632	-704.194	1085.250	585.551	-678.576	1014.729	729.161	-751.377	975.306	603.998	-719.215	1156.810	954.000	-346.187	911.700	1022.096	-462.732	1159.896	947.946	-687.426	910.370	1025.667	-550.241	966.437	1399.953	-517.267	1072.722	1405.678	-405.636	1065.514	1383.075	-645.909	1117.426	1327.774	-503.047	1117.249	1329.912	-549.832	1046.309	865.736	-424.233	1040.314	846.823	-608.509	1062.144	854.543	-399.234	1058.723	863.725	-624.283	911.035	1023.881	-506.487	1158.353	950.973	-516.806	1043.312	856.280	-516.371	1034.694	987.427	-511.646	1195.521	502.076	-389.234	984.631	480.060	-615.710	1270.324	119.973	-368.115	823.764	119.483	-610.987	1270.324	0.000	-368.115	1361.385	0.000	-301.665	1429.449	0.000	-362.165	823.764	0.000	-610.987	893.878	0.000	-692.487	967.878	0.000	-641.177
6	0.05000	1168.377	503.449	-319.464	1221.169	436.114	-322.753	1250.153	111.689	-323.611	1194.537	68.155	-371.797	1361.340	40.551	-301.561	1429.482	80.597	-362.020	979.822	487.770	-691.432	989.276	421.704	-665.583	808.918	116.566	-658.681	740.196	75.594	-599.654	893.874	42.555	-692.474	967.845	78.141	-641.242	1222.514	500.651	-459.074	1290.574	128.434	-412.563	989.370	472.191	-539.929	838.430	122.452	-563.268	1238.309	326.926	-311.673	1141.398	423.434	-313.108	1157.752	308.391	-306.702	909.567	455.127	-698.740	877.001	338.101	-706.760	1135.628	782.295	-291.969	1176.188	690.167	-298.697	1134.458	632.555	-288.361	1031.660	737.182	-291.680	1073.480	635.747	-301.607	1105.475	710.678	-704.183	1085.222	585.606	-678.535	1014.775	729.204	-751.460	975.220	603.914	-719.239	1156.619	953.918	-346.142	911.565	1021.965	-462.632	1159.852	947.969	-687.394	910.263	1025.717	-550.286	966.543	1399.893	-517.196	1072.452	1405.669	-405.592	1065.496	1383.100	-645.831	1117.426	1327.774	-503.047	1117.033	1329.716	-549.818	1046.167	865.662	-424.251	1040.228	846.831	-608.537	1062.084	854.170	-399.423	1058.740	863.802	-624.463	910.914	1023.841	-506.459	1158.236	950.943	-516.768	1043.197	856.247	-516.394	1034.575	987.392	-511.613	1195.446	502.050	-389.269	984.596	479.980	-615.681	1270.363	120.061	-368.087	823.674	119.509	-610.975	1270.363	0.000	-368.087	1361.340	0.000	-301.561	1429.482	0.000	-362.020	823.674	0.000	-610.975	893.874	0.000	-692.474	967.845	0.000	-641.242
7	0.06000	1168.334	503.443	-319.477	1221.082	436.112	-322.671	1250.106	111.614	-323.572	1194.539	68.154	-371.780	1361.350	40.589	-301.609	1429.401	80.605	-362.056	979.721	487.827	-691.468	989.332	421.715	-665.477	808.946	116.519	-658.608	740.207	75.628	-599.638	893.898	42.574	-692.407	967.888	78.162	-641.177	1222.442	500.601	-459.102	1290.534	128.437	-412.496	989.371	472.591	-539.633	838.461	122.485	-563.391	1238.236	326.947	-311.634	1141.333	423.407	-313.110	1157.606	308.309	-306.738	909.679	455.082	-698.809	876.915	338.226	-706.957	1135.436	782.211	-291.915	1175.937	690.010	-298.645	1134.341	632.562	-288.349	1031.506	737.200	-291.712	1073.305	635.672	-301.665	1105.391	710.696	-704.202	1085.154	585.590	-678.526	1014.520	729.199	-751.528	975.106	603.959	-719.299	1156.544	953.946	-345.973	911.463	1021.917	-462.695	1159.786	948.004	-687.321	910.158	1025.564	-550.361	966.117	1399.952	-517.165	1072.267	1405.683	-405.540	1065.269	1383.038	-645.846	1117.113	1327.843	-502.794	1116.757	1329.521	-550.190	1046.112	865.648	-424.201	1040.250	846.784	-608.487	1061.995	854.332	-399.151	1058.642	863.697	-624.265	910.810	1023.740	-506.528	1158.165	950.975	-516.647	1043.181	856.216	-516.344	1034.488	987.357	-511.587	1195.388	502.022	-389.290	984.546	480.209	-615.550	1270.320	120.025	-368.034	823.703	119.502	-611.000	1270.320	0.000	-368.034	1361.350	0.000	-301.609	1429.401	0.000	-362.056	823.703	0.000	-611.000	893.898	0.000	-692.407	967.888	0.000	-641.177
8	0.07000	1168.214	503.419	-319.397	1220.990	436.072	-322.855	1249.992	111.420	-323.607	1194.538	68.162	-371.832	1361.383	40.498	-301.617	1429.458	80.840	-361.956	979.736	487.855	-691.500	989.176	421.782	-665.679	809.044	116.503	-658.702	740.210	75.576	-599.665	893.939	42.531	-692.463	967.863	78.169	-641.213	1222.486	500.689	-459.057	1290.575	128.491	-412.523	989.222	472.432	-539.882	838.477	122.468	-563.294	1238.129	326.976	-311.591	1141.307	423.450	-313.085	1157.586	308.309	-306.767	909.602	455.082	-698.854	876.998	338.097	-706.855	1135.255	782.205	-291.967	1175.920	690.076	-298.624	1134.246	632.569	-288.366	1031.455	737.199	-291.666	1073.167	635.704	-301.662	1105.437	710.845	-704.142	1085.124	585.636	-678.440	1014.474	729.259	-751.698	975.156	603.971	-719.289	1156.447	954.015	-345.881	911.338	1021.836	-462.598	1159.733	948.065	-687.261	909.938	1025.511	-550.378	966.061	1399.932	-517.101	1072.091	1405.699	-405.592	1065.132	1383.081	-645.846	1117.113	1327.843	-502.794	1116.667	1329.485	-550.219	1046.053	865.656	-424.139	1040.220	846.785	-608.425	1062.089	854.296	-398.991	1058.496	863.722	-624.121	910.638	1023.673	-506.488	1158.090	951.040	-516.571	1043.137	856.220	-516.282	1034.364	987.357	-511.530	1195.350	502.054	-389.227	984.479	480.143	-615.691	1270.283	119.956	-368.065	823.760	119.485	-610.998	1270.283	0.000	-368.065	1361.383	0.000	-301.617	1429.458	0.000	-361.956	823.760	0.000	-610.998	893.939	0.000	-692.463	967.863	0.000	-641.213
